<?xml version="1.0" encoding="utf-8"?>
<!-- Generator: Adobe Illustrator 21.1.0, SVG Export Plug-In . SVG Version: 6.00 Build 0)  -->
<!DOCTYPE svg PUBLIC "-//W3C//DTD SVG 1.1//EN" "http://www.w3.org/Graphics/SVG/1.1/DTD/svg11.dtd">
<svg version="1.1" id="Layer_1" xmlns="http://www.w3.org/2000/svg" xmlns:xlink="http://www.w3.org/1999/xlink" x="0px" y="0px"
	 viewBox="0 0 178.6 43.7" style="enable-background:new 0 0 178.6 43.7;" xml:space="preserve">
<style type="text/css">
	.st0{fill:#FFFFFF;}
</style>
<title>BRK-website-graphics</title>
<path class="st0" d="M4.3,40.3h1.6c2,0,2.7-1.2,2.7-3.4s-0.8-3.4-3.1-3.4H4.3L4.3,40.3z M4.3,30.4h1.3c1.4,0,2.5-1.1,2.5-2.5
	c0-0.1,0-0.2,0-0.4c0-2-0.8-3.1-2.4-3.1H4.2L4.3,30.4z M0.5,21.4h5.5c4,0,5.8,2.1,5.8,5.8c0,1.9-0.8,3.9-2.6,4.6
	c1.9,0.9,3,2.4,3,5.2c0,3.6-1.6,6.4-5.8,6.4H0.6L0.5,21.4z"/>
<path class="st0" d="M25.4,31.2h1.3c2,0,2.8-0.8,2.8-3.4s-0.8-3.4-2.8-3.4h-1.3L25.4,31.2z M25.4,43.4h-3.7v-22h5.2
	c4.2,0,6.3,1.8,6.3,6.5c0,3.5-1.4,5-2.6,5.6l3.2,10H30l-2.7-9.1c-0.6,0.1-1.3,0.1-1.9,0.1L25.4,43.4z"/>
<rect x="43.2" y="21.3" transform="matrix(1 -2.094389e-03 2.094389e-03 1 -6.760335e-02 9.452305e-02)" class="st0" width="3.7" height="22"/>
<path class="st0" d="M64.6,28.6v-1.7c0-1.9-0.8-2.6-1.8-2.6c-1.5,0-2,0.8-2,2.4v11.2c0,1.7,0.5,2.4,2,2.4c1.4,0,1.8-0.8,1.8-2.2
	v-2.7h3.7V38c0,3.1-1.8,5.7-5.5,5.7c-3.9,0-5.7-2.5-5.7-5.6V26.6c0-3.1,1.8-5.6,5.7-5.6c3.7,0,5.6,2.7,5.6,6v1.6L64.6,28.6z"/>
<polygon class="st0" points="78.1,43.3 78,21.2 81.7,21.2 81.8,29.4 81.8,29.4 85.7,21.2 89.4,21.2 85.4,29.4 90,43.2 86.2,43.2 
	83.2,33 83.1,33 81.8,35.5 81.8,43.3 "/>
<polygon class="st0" points="104.1,21.2 107.1,21.2 109.7,35.2 109.8,35.2 111.8,21.2 115.3,21.2 111.5,43.2 108.4,43.2 105.7,28.7 
	105.6,28.7 103.1,43.2 99.9,43.2 95.8,21.2 99.3,21.2 101.6,35.2 101.7,35.2 "/>
<path class="st0" d="M127.5,37.7c0,1.7,0.5,2.4,2,2.4s2-0.8,2-2.4V26.6c0-1.6-0.5-2.4-2-2.4s-2,0.8-2,2.4L127.5,37.7z M123.7,26.5
	c0-3.1,1.8-5.6,5.7-5.6s5.7,2.5,5.7,5.6v11.3c0,3.1-1.8,5.7-5.7,5.7s-5.7-2.5-5.7-5.6L123.7,26.5z"/>
<path class="st0" d="M148.6,31h1.3c2,0,2.8-0.8,2.8-3.4s-0.8-3.4-2.8-3.4h-1.3L148.6,31z M148.6,43.1h-3.7v-22h5.2
	c4.2,0,6.3,1.8,6.3,6.5c0,3.5-1.4,5-2.6,5.6l3.2,10h-3.8l-2.6-9.2c-0.6,0.1-1.3,0.1-1.9,0.1L148.6,43.1z"/>
<polygon class="st0" points="165.8,43.1 165.7,21.1 169.4,21.1 169.5,29.2 169.5,29.2 173.4,21 177.2,21 173.1,29.3 177.7,43.1 
	173.9,43.1 170.9,32.8 170.8,32.8 169.5,35.3 169.5,43.1 "/>
<path class="st0" d="M45,8.3c-1.5,0-2.8-1.2-2.8-2.8c0-1.5,1.2-2.8,2.8-2.8c1.5,0,2.8,1.2,2.8,2.8C47.8,7.1,46.5,8.3,45,8.3
	C45,8.3,45,8.3,45,8.3 M45,0.4c-2.9,0-5.2,2.4-5.2,5.3c0,0,0,0.1,0,0.1c0,3,5.2,8.9,5.2,8.9s5.2-5.9,5.2-8.9C50.3,2.8,48,0.4,45,0.4
	C45.1,0.4,45,0.4,45,0.4"/>
<text transform="matrix(1 0 0 1 495 -392)" style="font-family:'MyriadPro-Regular'; font-size:12px;">Lorem ipsum</text>
</svg>
